<?xml version="1.0" standalone="no"?><!DOCTYPE svg PUBLIC "-//W3C//DTD SVG 1.1//EN" "http://www.w3.org/Graphics/SVG/1.1/DTD/svg11.dtd"><svg t="1610350770853" class="icon" viewBox="0 0 1024 1024" version="1.1" xmlns="http://www.w3.org/2000/svg" p-id="8350" xmlns:xlink="http://www.w3.org/1999/xlink" width="22px" height="22px"><defs><style type="text/css"></style></defs><path d="M377.017771 391.043189h-89.523799a14.939824 14.939824 0 0 0-14.919504 14.921762v179.052115c0 19.701513 29.841266 19.931808 29.841266 0v-74.604295h44.763029c19.846011 0 19.407999-29.841266 0-29.841267h-44.763029v-59.684791h74.604295c19.696997 0.304802 19.696997-29.843524-0.002258-29.843524zM779.880513 450.72798c0-14.61696-5.217762-30.645041-18.012682-42.083027-12.79492-11.451532-31.764907-17.601764-56.591613-17.601764h-29.843524a14.939824 14.939824 0 0 0-14.919504 14.921762v179.052115c0 20.046955 29.841266 19.464444 29.841266 0v-74.604295h14.921762c24.826705 0 43.796693-6.150232 56.591613-17.601764 12.822013-11.442501 18.012682-27.470583 18.012682-42.083027z m-37.885787 19.81666c-5.915421 5.244856-16.7867 10.024606-36.718508 10.024606h-14.921762v-59.68479h14.921762c19.931808 0 30.803087 4.77975 36.718508 10.024606 5.798016 5.231309 8.044521 11.641187 8.044521 19.81666-0.002258 8.146122-2.246505 14.614702-8.044521 19.818918zM541.148124 585.014808v-164.130352h44.76077c19.701513 0.30706 19.757957-29.841266 0-29.841267h-119.367323c-19.699255 0-19.699255 29.841266 0 29.841267h44.763028v164.130352c0 19.99051 29.843524 19.843754 29.843525 0zM536.716074 664.046638c-2.853852-2.85611-6.495674-4.429792-10.519064-4.373348l0.031609-0.056445a15.567491 15.567491 0 0 0-10.550672 4.373348l-119.193474 119.191215c-13.813185 13.314213 7.780359 34.910015 21.099087 21.099088l93.721039-93.768453v201.481043a14.872091 14.872091 0 0 0 14.921763 14.921762 14.874348 14.874348 0 0 0 14.919504-14.921762v-201.42234l93.660078 93.70975c13.551281 14.104441 35.08838-7.665211 21.101345-21.040385l-119.191215-119.193473z" fill="#ffffff" p-id="8351"></path><path d="M914.165084 241.836857H526.226362c-11.135441 0-15.504273-0.058703-20.895886-2.447449-5.420964-2.391004-13.727389-8.509626-28.238233-23.036275l-89.526057-89.523799c-14.919504-14.921762-22.729215-23.402037-33.68629-28.881704-11.074481-5.522565-21.622895-5.317105-36.544658-5.317106h-208.891123c-24.539966 0-44.763029 20.238868-44.763028 44.763029v686.355902c0 24.537708 20.225321 44.763029 44.763028 44.763029h208.891123c19.902456 0 19.701513-29.843524 0-29.843524h-208.891123c-8.538978 0-14.921762-6.380527-14.921762-14.919505V137.391295c0-8.538978 6.382784-14.921762 14.921762-14.921762h208.891123c14.921762 0 19.292852 0.205459 23.196578 2.142647 3.876633 1.982343 11.015778 8.419315 25.937541 23.343334l89.523799 89.5238c15.418477 15.402672 25.820135 24.174203 37.244574 29.245209 11.422181 5.071006 21.8848 4.953601 32.988632 4.9536h387.936464c8.538978 0 14.921762 6.385042 14.921762 14.921762v537.14957c0 8.538978-6.382784 14.919504-14.921762 14.919505H735.115227c-19.292852 0-20.049213 29.843524 0 29.843524h179.047599c24.539966 0 44.763029-20.225321 44.763028-44.763029v-537.151827c0.002258-24.524161-20.220805-44.760771-44.76077-44.760771z" fill="#ffffff" p-id="8352"></path></svg>