<?xml version="1.0" standalone="no"?><!DOCTYPE svg PUBLIC "-//W3C//DTD SVG 1.1//EN" "http://www.w3.org/Graphics/SVG/1.1/DTD/svg11.dtd"><svg t="1610350791022" class="icon" viewBox="0 0 1024 1024" version="1.1" xmlns="http://www.w3.org/2000/svg" p-id="9298" xmlns:xlink="http://www.w3.org/1999/xlink" width="22px" height="22px"><defs><style type="text/css"></style></defs><path d="M849.655707 1024H174.340081A100.195197 100.195197 0 0 1 74.144884 923.804803V344.676567a101.197149 101.197149 0 0 1 30.058559-72.140542L356.695339 28.059745a99.193245 99.193245 0 0 1 70.136638-28.054655h422.82373a100.195197 100.195197 0 0 1 100.195196 100.195197v823.604516a100.195197 100.195197 0 0 1-100.195196 100.195197zM426.831977 80.161247a20.039039 20.039039 0 0 0-14.027328 6.011712L160.312753 330.649239a20.039039 20.039039 0 0 0-6.011711 14.027328v579.128236a20.039039 20.039039 0 0 0 20.039039 20.03904h675.315626a20.039039 20.039039 0 0 0 20.039039-20.03904V100.200287a20.039039 20.039039 0 0 0-20.039039-20.03904z" fill="#ffffff" p-id="9299"></path><path d="M753.468318 876.713061H269.525518a40.078079 40.078079 0 0 1-40.078079-40.078079V588.150894a40.078079 40.078079 0 0 1 40.078079-40.078078h483.9428a40.078079 40.078079 0 0 1 40.078078 40.078078v248.484088a40.078079 40.078079 0 0 1-40.078078 40.078079z m-443.864722-80.156157h403.786643V628.228973H309.603596zM740.442942 464.910803a40.078079 40.078079 0 0 1-40.078079-40.078079V190.375964a40.078079 40.078079 0 0 1 80.156158 0v234.45676a40.078079 40.078079 0 0 1-40.078079 40.078079zM609.187235 464.910803a40.078079 40.078079 0 0 1-40.078079-40.078079V190.375964a40.078079 40.078079 0 0 1 80.156157 0v234.45676a40.078079 40.078079 0 0 1-40.078078 40.078079zM477.931527 464.910803a40.078079 40.078079 0 0 1-40.078079-40.078079V190.375964a40.078079 40.078079 0 0 1 80.156158 0v234.45676a40.078079 40.078079 0 0 1-40.078079 40.078079zM347.677771 464.910803a40.078079 40.078079 0 0 1-40.078079-40.078079V278.547737a40.078079 40.078079 0 0 1 80.156158 0v146.284987a40.078079 40.078079 0 0 1-40.078079 40.078079z" fill="#ffffff" p-id="9300"></path></svg>