<?xml version="1.0" standalone="no"?><!DOCTYPE svg PUBLIC "-//W3C//DTD SVG 1.1//EN" "http://www.w3.org/Graphics/SVG/1.1/DTD/svg11.dtd"><svg t="1610350803406" class="icon" viewBox="0 0 1024 1024" version="1.1" xmlns="http://www.w3.org/2000/svg" p-id="9515" xmlns:xlink="http://www.w3.org/1999/xlink" width="22px" height="22px"><defs><style type="text/css"></style></defs><path d="M483.149913 360.71513a40.826435 40.826435 0 1 1 57.700174 57.700174 40.826435 40.826435 0 0 1-57.700174-57.700174zM512 471.173565c22.528 0 40.826435 18.253913 40.826435 40.826435v163.261217a40.826435 40.826435 0 0 1-81.65287 0V512c0-22.528 18.253913-40.826435 40.826435-40.826435z m0-326.477913a367.304348 367.304348 0 0 0-367.304348 367.304348A367.304348 367.304348 0 0 0 512 879.304348a367.304348 367.304348 0 0 0 367.304348-367.304348A367.304348 367.304348 0 0 0 512 144.695652z m0-81.608348c247.941565 0 448.912696 200.97113 448.912696 448.912696S759.986087 960.912696 512 960.912696 63.087304 759.986087 63.087304 512 264.013913 63.087304 512 63.087304z" fill="#ffffff" p-id="9516"></path></svg>