<?xml version="1.0" standalone="no"?><!DOCTYPE svg PUBLIC "-//W3C//DTD SVG 1.1//EN" "http://www.w3.org/Graphics/SVG/1.1/DTD/svg11.dtd"><svg t="1610350815915" class="icon" viewBox="0 0 1024 1024" version="1.1" xmlns="http://www.w3.org/2000/svg" fill="#ffffff" p-id="9665" xmlns:xlink="http://www.w3.org/1999/xlink" width="22px" height="22px"><defs><style type="text/css"></style></defs><path d="M788.48 198.656c20.2752 0 36.864 16.5888 36.864 36.864v552.96c0 20.2752-16.5888 36.864-36.864 36.864H235.52c-20.2752 0-36.864-16.5888-36.864-36.864V235.52c0-20.2752 16.5888-36.864 36.864-36.864h552.96m0-45.056H235.52c-45.2608 0-81.92 36.6592-81.92 81.92v552.96c0 45.2608 36.6592 81.92 81.92 81.92h552.96c45.2608 0 81.92-36.6592 81.92-81.92V235.52c0-45.2608-36.6592-81.92-81.92-81.92z" fill="#ffffff" p-id="9666"></path><path d="M512 321.1264l105.472 105.2672h-56.7296v88.064h-88.6784v-88.064h-65.536l105.472-105.2672m0-58.5728c-3.072 0-6.3488 1.2288-8.6016 3.6864l-184.7296 184.32c-7.7824 7.7824-2.2528 20.8896 8.6016 20.8896h99.7376v75.776c0 6.7584 5.5296 12.288 12.288 12.288h154.2144c6.7584 0 12.288-5.5296 12.288-12.288v-75.776h90.9312c10.8544 0 16.384-13.312 8.6016-20.8896l-184.7296-184.32c-2.2528-2.4576-5.5296-3.6864-8.6016-3.6864z" fill="#ffffff" p-id="9667"></path><path d="M578.9696 637.3376h-133.7344c-12.4928 0-22.528-10.0352-22.528-22.528s10.0352-22.528 22.528-22.528h133.7344c12.4928 0 22.528 10.0352 22.528 22.528s-10.24 22.528-22.528 22.528z" fill="#ffffff" p-id="9668"></path><path d="M578.9696 670.1056h-133.7344c-12.4928 0-22.528 10.0352-22.528 22.528s10.0352 22.528 22.528 22.528h133.7344c12.4928 0 22.528-10.0352 22.528-22.528s-10.24-22.528-22.528-22.528z" fill="#ffffff" p-id="9669"></path></svg>