<?xml version="1.0" standalone="no"?><!DOCTYPE svg PUBLIC "-//W3C//DTD SVG 1.1//EN" "http://www.w3.org/Graphics/SVG/1.1/DTD/svg11.dtd"><svg t="1610350457505" class="icon" viewBox="0 0 1024 1024" version="1.1" xmlns="http://www.w3.org/2000/svg" fill="#ffffff" p-id="5646" xmlns:xlink="http://www.w3.org/1999/xlink" width="22px" height="22px"><defs><style type="text/css"></style></defs><path d="M735.5 959h-447C165.3 959 65 858.7 65 735.5v-447C65 165.3 165.3 65 288.5 65h447C858.7 65 959 165.3 959 288.5v447C959 858.7 858.7 959 735.5 959z m-447-812.7c-78.4 0-142.2 63.8-142.2 142.2v447c0 78.4 63.8 142.2 142.2 142.2h447c78.4 0 142.2-63.8 142.2-142.2v-447c0-78.4-63.8-142.2-142.2-142.2h-447z" fill="#ffffff" p-id="5647"></path><path d="M601.5 679.3H422.6c-43.1 0-78.3-35.2-78.3-78.3V422.1c0-43.1 35.2-78.3 78.3-78.3h178.9c43.1 0 78.3 35.2 78.3 78.3V601c0 43.1-35.2 78.3-78.3 78.3z" p-id="5648"></path><path d="M614.1 379h-21V256.3c0-5.8 4.7-10.5 10.5-10.5s10.5 4.7 10.5 10.5V379zM550.7 379h-21V256.3c0-5.8 4.7-10.5 10.5-10.5s10.5 4.7 10.5 10.5V379zM487.3 379h-21V256.3c0-5.8 4.7-10.5 10.5-10.5s10.5 4.7 10.5 10.5V379zM423.9 379h-21V256.3c0-5.8 4.7-10.5 10.5-10.5s10.5 4.7 10.5 10.5V379zM603.6 770.5c-5.8 0-10.5-4.7-10.5-10.5V637.4h21v122.7c0 5.7-4.7 10.4-10.5 10.4zM540.2 770.5c-5.8 0-10.5-4.7-10.5-10.5V637.4h21v122.7c0 5.7-4.7 10.4-10.5 10.4zM476.8 770.5c-5.8 0-10.5-4.7-10.5-10.5V637.4h21v122.7c0 5.7-4.7 10.4-10.5 10.4zM413.4 770.5c-5.8 0-10.5-4.7-10.5-10.5V637.4h21v122.7c0 5.7-4.7 10.4-10.5 10.4zM242 605.9c0-5.8 4.7-10.5 10.5-10.5h122.7v21H252.5c-5.8 0-10.5-4.7-10.5-10.5zM242 542.5c0-5.8 4.7-10.5 10.5-10.5h122.7v21H252.5c-5.8 0-10.5-4.7-10.5-10.5zM242 479.1c0-5.8 4.7-10.5 10.5-10.5h122.7v21H252.5c-5.8 0-10.5-4.7-10.5-10.5zM242 415.7c0-5.8 4.7-10.5 10.5-10.5h122.7v21H252.5c-5.8 0-10.5-4.7-10.5-10.5zM647.7 616.4v-21h122.7c5.8 0 10.5 4.7 10.5 10.5s-4.7 10.5-10.5 10.5H647.7zM647.7 553v-21h122.7c5.8 0 10.5 4.7 10.5 10.5s-4.7 10.5-10.5 10.5H647.7zM647.7 489.6v-21h122.7c5.8 0 10.5 4.7 10.5 10.5s-4.7 10.5-10.5 10.5H647.7zM647.7 426.2v-21h122.7c5.8 0 10.5 4.7 10.5 10.5s-4.7 10.5-10.5 10.5H647.7z" fill="#ffffff" p-id="5649"></path></svg>